#!OML:ASF I:\Actors\actors\Patient Classification 1\Patient 1\Session 1\Subject1.ASF
:FULLY-SPECIFIED
:DEGREES
272
root -0.642282 17.7136 7.47706 20.9637 -5.02893 -8.15733
lowerback 15.9685 -2.16639 2.09136
upperback -8.40268 -2.21112 1.64328
thorax -18.9068 -1.08627 1.45593
lowerneck -18.9189 1.97467 4.29491
upperneck 22.5998 2.53792 -4.22432
head 10.4874 1.01025 -1.86251
rclavicle -1.70955e-014 -7.95139e-016
rhumerus 34.5415 4.72336 -89.5689
rradius 92.6166
rwrist 0.885501
rhand -21.2383 -51.1112
rfingers 7.12502
rthumb 5.14431 -81.0287
lclavicle -1.70955e-014 -7.95139e-016
lhumerus 54.373 -42.244 75.476
lradius 69.5792
lwrist 31.9246
lhand -40.2233 -22.1974
lfingers 7.12502
lthumb -13.183 7.36582
rfemur -18.7708 30.2733 18.509
rtibia -0.175837
rfoot -6.31961 -25.7809
rtoes 3.38073
lfemur -13.7958 -38.7719 0.881234
ltibia -2.33743
lfoot -24.2029 52.6706
ltoes 16.6841
273
root -0.643439 17.7113 7.44769 21.0126 -5.05919 -8.12678
lowerback 15.929 -2.03036 2.1668
upperback -8.28985 -2.01256 1.61074
thorax -18.7386 -1.01219 1.30426
lowerneck -19.0473 1.91634 4.17573
upperneck 22.3331 2.43674 -4.05576
head 10.4058 0.973827 -1.79338
rclavicle 3.63776e-014 -2.06736e-014
rhumerus 30.4441 5.23958 -89.9152
rradius 88.3628
rwrist -0.971959
rhand -20.6496 -52.4096
rfingers 7.12502
rthumb 5.71262 -82.3126
lclavicle 3.63776e-014 -2.06736e-014
lhumerus 49.0028 -42.6399 78.7886
lradius 65.5824
lwrist 33.2318
lhand -40.7018 -20.8986
lfingers 7.12502
lthumb -13.6442 8.63422
rfemur -18.962 30.7026 18.2599
rtibia -0.240792
rfoot -6.26385 -26.2474
rtoes 3.65043
lfemur -14.0216 -38.4737 0.993277
ltibia -2.31869
lfoot -23.8618 52.4715
ltoes 16.4848
274
root -0.646245 17.7087 7.42313 21.0745 -5.08668 -8.12641
lowerback 15.8851 -1.88884 2.26465
upperback -8.19286 -1.79891 1.59342
thorax -18.5881 -0.932107 1.15442
lowerneck -19.1822 1.84943 4.0307
upperneck 22.0225 2.32565 -3.86613
head 10.3091 0.933217 -1.71369
rclavicle 1.66979e-014 2.46493e-014
rhumerus 26.3166 5.855 -90.3039
rradius 83.6715
rwrist -3.23388
rhand -19.6764 -53.6915
rfingers 7.12502
rthumb 6.65218 -83.5671
lclavicle 1.66979e-014 2.46493e-014
lhumerus 43.5489 -42.8318 82.1462
lradius 61.3079
lwrist 35.0623
lhand -41.1654 -18.7227
lfingers 7.12502
lthumb -14.091 10.7795
rfemur -19.1435 31.0944 18.0663
rtibia -0.300161
rfoot -6.20952 -26.6559
rtoes 3.79173
lfemur -14.2053 -38.3998 1.16166
ltibia -2.34664
lfoot -23.8356 52.4402
ltoes 16.4918
275
root -0.650555 17.7057 7.404 21.1433 -5.11315 -8.14581
lowerback 15.8349 -1.74916 2.37537
upperback -8.11214 -1.58359 1.58614
thorax -18.454 -0.851358 1.00977
lowerneck -19.3065 1.77672 3.8842
upperneck 21.6452 2.20503 -3.66941
head 10.1866 0.889146 -1.63245
rclavicle -1.83876e-014 2.70347e-014
rhumerus 22.1845 6.56685 -90.8222
rradius 78.7139
rwrist -6.36445
rhand -18.4872 -54.8476
rfingers 7.12502
rthumb 7.8001 -84.6837
lclavicle -1.83876e-014 2.70347e-014
lhumerus 38.0443 -42.7794 85.5605
lradius 56.8332
lwrist 37.6815
lhand -41.5413 -15.4451
lfingers 7.12502
lthumb -14.4533 14.0316
rfemur -19.3054 31.4202 17.9297
rtibia -0.352085
rfoot -6.14856 -26.9799
rtoes 3.7767
lfemur -14.3395 -38.5378 1.36275
ltibia -2.41325
lfoot -24.1131 52.5623
ltoes 16.7105
276
root -0.656103 17.702 7.39053 21.2105 -5.13252 -8.16116
lowerback 15.7772 -1.62588 2.48942
upperback -8.04599 -1.39081 1.57788
thorax -18.3333 -0.780658 0.870239
lowerneck -19.4259 1.70082 3.73399
upperneck 21.2054 2.07453 -3.44599
head 10.0411 0.843434 -1.54253
rclavicle 1.05356e-014 -1.03368e-014
rhumerus 18.1021 7.32871 -91.5526
rradius 73.6181
rwrist -10.2913
rhand -17.1759 -55.9428
rfingers 7.12502
rthumb 9.0656 -85.7279
lclavicle 1.05356e-014 -1.03368e-014
lhumerus 32.4988 -42.3947 89.0552
lradius 52.2543
lwrist 40.9338
lhand -41.8101 -11.3971
lfingers 7.12502
lthumb -14.7122 18.0609
rfemur -19.4378 31.6633 17.8304
rtibia -0.397863
rfoot -6.08696 -27.2186
rtoes 3.66134
lfemur -14.4319 -38.8237 1.55689
ltibia -2.49814
lfoot -24.6057 52.7771
ltoes 17.0916
277
root -0.662718 17.6983 7.3828 21.2689 -5.14282 -8.1598
lowerback 15.709 -1.52518 2.5833
upperback -7.9892 -1.23373 1.57517
thorax -18.2168 -0.722532 0.760331
lowerneck -19.5238 1.63579 3.60536
upperneck 20.6907 1.95406 -3.2249
head 9.86703 0.803831 -1.45572
rclavicle 1.40143e-014 1.19271e-014
rhumerus 14.1129 8.14042 -92.4971
rradius 68.5824
rwrist -14.7384
rhand -15.5112 -57.4901
rfingers 7.12502
rthumb 10.6717 -87.1991
lclavicle 1.40143e-014 1.19271e-014
lhumerus 26.9392 -41.5631 92.6374
lradius 47.6437
lwrist 44.1891
lhand -42.1165 -7.28009
lfingers 7.12502
lthumb -15.0074 22.1561
rfemur -19.5331 31.8214 17.7575
rtibia -0.437805
rfoot -6.03447 -27.3787
rtoes 3.51511
lfemur -14.4896 -39.1905 1.71731
ltibia -2.58326
lfoot -25.2206 53.0299
ltoes 17.5612
278
root -0.670274 17.6948 7.38063 21.3173 -5.14672 -8.14137
lowerback 15.6288 -1.45011 2.65224
upperback -7.93866 -1.11736 1.58011
thorax -18.0997 -0.678591 0.686448
lowerneck -19.6027 1.59349 3.52236
upperneck 20.1052 1.85775 -3.02573
head 9.66759 0.776226 -1.38105
rclavicle -1.71949e-014 3.18055e-015
rhumerus 10.3206 9.09404 -93.5896
rradius 63.619
rwrist -19.1188
rhand -13.8645 -59.244
rfingers 7.12502
rthumb 12.2597 -88.8646
lclavicle -1.71949e-014 3.18055e-015
lhumerus 21.438 -40.1556 96.2488
lradius 43.1468
lwrist 46.4536
lhand -42.6285 -3.31649
lfingers 7.12502
lthumb -15.5005 26.0822
rfemur -19.593 31.9053 17.7058
rtibia -0.469535
rfoot -6.00289 -27.4704
rtoes 3.40478
lfemur -14.5226 -39.5809 1.83658
ltibia -2.6539
lfoot -25.8755 53.2835
ltoes 18.0484
279
root -0.678694 17.6921 7.38361 21.3555 -5.13857 -8.11294
lowerback 15.5371 -1.39948 2.70315
upperback -7.89183 -1.03782 1.59599
thorax -17.9796 -0.647764 0.647032
lowerneck -19.6674 1.58158 3.49721
upperneck 19.4623 1.79335 -2.8517
head 9.44908 0.764498 -1.32072
rclavicle 5.09883e-014 6.36111e-015
rhumerus 6.74274 10.2116 -94.8062
rradius 58.7987
rwrist -22.7609
rhand -12.0681 -61.0478
rfingers 7.12502
rthumb 13.9914 90.557
lclavicle 5.09883e-014 6.36111e-015
lhumerus 16.1544 -38.1864 99.6927
lradius 38.8544
lwrist 47.0652
lhand -43.4006 0.63104
lfingers 7.12502
lthumb -16.2441 29.9705
rfemur -19.6197 31.9235 17.6799
rtibia -0.490461
rfoot -6.00163 -27.504
rtoes 3.37767
lfemur -14.5421 -39.9133 1.91681
ltibia -2.69834
lfoot -26.4169 53.487
ltoes 18.4102
280
root -0.687995 17.6902 7.39125 21.3864 -5.11636 -8.08286
lowerback 15.4346 -1.36581 2.74581
upperback -7.84806 -0.98203 1.6253
thorax -17.8563 -0.625274 0.635211
lowerneck -19.7261 1.59728 3.51973
upperneck 18.7829 1.75752 -2.69182
head 9.22015 0.767291 -1.26982
rclavicle 6.4605e-015 1.11319e-014
rhumerus 3.3361 11.4493 -96.1595
rradius 54.2493
rwrist -25.1376
rhand -10.1316 -62.7381
rfingers 7.12502
rthumb 15.8569 92.1088
lclavicle 6.4605e-015 1.11319e-014
lhumerus 11.2204 -35.7326 102.793
lradius 34.911
lwrist 46.0079
lhand -44.2885 4.94219
lfingers 7.12502
lthumb -17.0989 34.2098
rfemur -19.6168 31.8701 17.6908
rtibia -0.497501
rfoot -6.02532 -27.4702
rtoes 3.41222
lfemur -14.553 -40.1107 1.96017
ltibia -2.71489
lfoot -26.683 53.6039
ltoes 18.5082
281
root -0.698216 17.689 7.40257 21.4106 -5.08478 -8.05742
lowerback 15.3329 -1.33785 2.78796
upperback -7.81012 -0.932429 1.66623
thorax -17.7411 -0.60441 0.639429
lowerneck -19.7859 1.629 3.56708
upperneck 18.0934 1.73627 -2.52407
head 8.99031 0.778677 -1.21906
rclavicle 1.3418e-014 1.82882e-014
rhumerus 0.0642853 12.6666 -97.6661
rradius 50.1638
rwrist -26.393
rhand -8.33452 -64.0906
rfingers 7.12502
rthumb 17.5869 93.3152
lclavicle 1.3418e-014 1.82882e-014
lhumerus 6.69646 -32.9064 105.435
lradius 31.476
lwrist 43.8249
lhand -44.9637 9.40709
lfingers 7.12502
lthumb -17.7487 38.6171
rfemur -19.5902 31.7375 17.7471
rtibia -0.483815
rfoot -6.06478 -27.3518
rtoes 3.45936
lfemur -14.5547 -40.125 1.96603
ltibia -2.70151
lfoot -26.6066 53.6096
ltoes 18.3145
